<svg xmlns="http://www.w3.org/2000/svg" viewBox="0 0 160 160" fill="none"><defs><linearGradient id="g" x1="25" y1="14" x2="145" y2="154" gradientUnits="userSpaceOnUse"><stop stop-color="#eee0b5"/><stop offset=".5" stop-color="#b99452"/><stop offset="1" stop-color="#695332"/></linearGradient><linearGradient id="s" x2="0" y2="160" gradientUnits="userSpaceOnUse"><stop stop-color="#21332d"/><stop offset="1" stop-color="#0b1312"/></linearGradient></defs><path d="m80 5 59 25 15 62-42 57H48L6 92l15-62Z" fill="url(#s)" stroke="url(#g)" stroke-width="3"/><path d="m80 14 52 22 13 54-38 51H53L15 90l13-54Z" stroke="#b99452" stroke-opacity=".35"/><path d="M43 72h74v49H43Z" fill="#07100e" stroke="url(#g)" stroke-width="3"/><path d="m65 33 35 12-12 37-35-12Z" fill="url(#s)" stroke="url(#g)" stroke-width="3"/><path d="m65 56 8 10 16-16M62 94h36M62 104h36" stroke="url(#g)" stroke-width="4" stroke-linecap="round" stroke-linejoin="round"/><path d="M34 70v45m92-45v45" stroke="#b99452" stroke-opacity=".45"/></svg>
